<svg width="24" height="25" viewBox="0 0 24 25" fill="none" xmlns="http://www.w3.org/2000/svg">
    <path d="M6.90523 0.381348H16.9059C20.7157 0.381348 23.8111 3.4768 23.8111 7.28658V17.2873C23.8111 19.1186 23.0836 20.875 21.7887 22.17C20.4937 23.465 18.7373 24.1925 16.9059 24.1925H6.90523C3.09545 24.1925 0 21.097 0 17.2873V7.28658C0 5.4552 0.727514 3.69883 2.0225 2.40384C3.31748 1.10886 5.07385 0.381348 6.90523 0.381348ZM6.66712 2.76246C5.5304 2.76246 4.44024 3.21402 3.63646 4.0178C2.83267 4.82159 2.38111 5.91175 2.38111 7.04847V17.5254C2.38111 19.8946 4.29791 21.8114 6.66712 21.8114H17.144C18.2807 21.8114 19.3709 21.3598 20.1747 20.556C20.9785 19.7523 21.43 18.6621 21.43 17.5254V7.04847C21.43 4.67926 19.5132 2.76246 17.144 2.76246H6.66712ZM18.156 4.5483C18.5507 4.5483 18.9292 4.70509 19.2083 4.98418C19.4874 5.26327 19.6442 5.6418 19.6442 6.0365C19.6442 6.43119 19.4874 6.80972 19.2083 7.08881C18.9292 7.3679 18.5507 7.52469 18.156 7.52469C17.7613 7.52469 17.3828 7.3679 17.1037 7.08881C16.8246 6.80972 16.6678 6.43119 16.6678 6.0365C16.6678 5.6418 16.8246 5.26327 17.1037 4.98418C17.3828 4.70509 17.7613 4.5483 18.156 4.5483ZM11.9056 6.33413C13.4844 6.33413 14.9985 6.9613 16.1148 8.07767C17.2312 9.19403 17.8584 10.7081 17.8584 12.2869C17.8584 13.8657 17.2312 15.3798 16.1148 16.4962C14.9985 17.6125 13.4844 18.2397 11.9056 18.2397C10.3268 18.2397 8.81268 17.6125 7.69632 16.4962C6.57995 15.3798 5.95279 13.8657 5.95279 12.2869C5.95279 10.7081 6.57995 9.19403 7.69632 8.07767C8.81268 6.9613 10.3268 6.33413 11.9056 6.33413ZM11.9056 8.71525C10.9583 8.71525 10.0498 9.09155 9.38002 9.76137C8.7102 10.4312 8.3339 11.3397 8.3339 12.2869C8.3339 13.2342 8.7102 14.1427 9.38002 14.8125C10.0498 15.4823 10.9583 15.8586 11.9056 15.8586C12.8528 15.8586 13.7613 15.4823 14.4311 14.8125C15.1009 14.1427 15.4772 13.2342 15.4772 12.2869C15.4772 11.3397 15.1009 10.4312 14.4311 9.76137C13.7613 9.09155 12.8528 8.71525 11.9056 8.71525Z" fill="white"/>
</svg>
