<svg width="27" height="20" viewBox="0 0 27 20" fill="none" xmlns="http://www.w3.org/2000/svg">
<path d="M21.3897 19.4552C19.5368 19.3356 18.2218 18.6483 17.4448 17.3931C16.6678 16.1379 16.2793 14.7333 16.2793 13.1793C16.2793 11.2069 16.6379 9.35403 17.3552 7.62069C18.1322 5.82759 19.1483 4.27356 20.4034 2.95863C21.6586 1.58391 23.0632 0.597704 24.6172 0L26.5 2.6C25.723 3.07816 24.9759 3.73563 24.2586 4.57241C23.5414 5.34943 22.8839 6.21609 22.2862 7.17242C21.7483 8.12874 21.3897 9.14483 21.2103 10.2207C22.1069 10.2207 22.9138 10.4 23.631 10.7586C24.408 11.0575 25.0057 11.5356 25.4241 12.1931C25.9023 12.8506 26.1414 13.7172 26.1414 14.7931C26.1414 16.2276 25.6931 17.3632 24.7965 18.2C23.9 19.0368 22.7644 19.4552 21.3897 19.4552ZM5.7 19.4552C3.78736 19.3954 2.44253 18.7379 1.66552 17.4828C0.888506 16.1678 0.5 14.7333 0.5 13.1793C0.5 11.2069 0.858621 9.35403 1.57586 7.62069C2.35287 5.82759 3.36897 4.27356 4.62414 2.95863C5.87931 1.58391 7.28391 0.597704 8.83793 0L10.7207 2.6C9.94368 3.07816 9.19655 3.73563 8.47931 4.57241C7.76207 5.34943 7.1046 6.21609 6.5069 7.17242C5.96897 8.12874 5.61034 9.14483 5.43103 10.2207C6.32759 10.2207 7.13448 10.4 7.85172 10.7586C8.62874 11.0575 9.22644 11.5356 9.64483 12.1931C10.123 12.8506 10.3621 13.7172 10.3621 14.7931C10.3621 16.2276 9.88391 17.3632 8.92759 18.2C8.03103 19.0368 6.95517 19.4552 5.7 19.4552Z" fill="#4584BD"/>
</svg>
