<svg width="27" height="20" viewBox="0 0 27 20" fill="none" xmlns="http://www.w3.org/2000/svg">
<path d="M5.61035 19.4552C7.46322 19.3356 8.77816 18.6483 9.55517 17.3931C10.3322 16.1379 10.7207 14.7333 10.7207 13.1793C10.7207 11.2069 10.3621 9.35403 9.64483 7.62069C8.86782 5.82759 7.85172 4.27356 6.59655 2.95863C5.34138 1.58391 3.93678 0.597704 2.38276 0L0.500002 2.6C1.27701 3.07816 2.02414 3.73563 2.74138 4.57241C3.45862 5.34943 4.11609 6.21609 4.71379 7.17242C5.25172 8.12874 5.61034 9.14483 5.78965 10.2207C4.8931 10.2207 4.08621 10.4 3.36897 10.7586C2.59196 11.0575 1.99425 11.5356 1.57586 12.1931C1.0977 12.8506 0.858624 13.7172 0.858624 14.7931C0.858624 16.2276 1.3069 17.3632 2.20345 18.2C3.1 19.0368 4.23563 19.4552 5.61035 19.4552ZM21.3 19.4552C23.2126 19.3954 24.5575 18.7379 25.3345 17.4828C26.1115 16.1678 26.5 14.7333 26.5 13.1793C26.5 11.2069 26.1414 9.35403 25.4241 7.62069C24.6471 5.82759 23.631 4.27356 22.3759 2.95863C21.1207 1.58391 19.7161 0.597704 18.1621 0L16.2793 2.6C17.0563 3.07816 17.8034 3.73563 18.5207 4.57241C19.2379 5.34943 19.8954 6.21609 20.4931 7.17242C21.031 8.12874 21.3897 9.14483 21.569 10.2207C20.6724 10.2207 19.8655 10.4 19.1483 10.7586C18.3713 11.0575 17.7736 11.5356 17.3552 12.1931C16.877 12.8506 16.6379 13.7172 16.6379 14.7931C16.6379 16.2276 17.1161 17.3632 18.0724 18.2C18.969 19.0368 20.0448 19.4552 21.3 19.4552Z" fill="#4584BD"/>
</svg>
