<svg width="30" height="26" viewBox="0 0 30 26" fill="none" xmlns="http://www.w3.org/2000/svg">
    <path d="M28.3754 2L3.10917 12.0054C2.45807 12.2629 2.13334 12.3932 2.04927 12.5611C2.01283 12.633 1.99614 12.7124 2.00075 12.792C2.00536 12.8717 2.03113 12.9489 2.07564 13.0164C2.17949 13.1734 2.51741 13.2676 3.19654 13.4576L12.7159 16.1297M28.3754 2L24.9715 22.4865C24.9056 22.8852 24.8726 23.0846 24.7622 23.1929C24.7155 23.2414 24.6586 23.2799 24.5953 23.3062C24.532 23.3324 24.4636 23.3457 24.3946 23.3452C24.2347 23.3452 24.0567 23.2322 23.7006 23.0061L18.8709 19.9353M28.3754 2L12.7159 16.1297M12.7159 16.1297L12.973 22.8805C12.973 23.4049 12.973 23.6671 13.0868 23.799C13.1857 23.9151 13.334 23.9811 13.4923 23.9795C13.6736 23.9779 13.8879 23.8099 14.3165 23.4771L18.8709 19.9353M12.7159 16.1297L18.8709 19.9353" stroke="white" stroke-width="2.19795" stroke-linecap="round" stroke-linejoin="round"/>
</svg>
