<svg width="25" height="25" viewBox="0 0 25 25" fill="none" xmlns="http://www.w3.org/2000/svg">
    <path d="M20.6541 3.61652C19.5403 2.49701 18.2135 1.60939 16.7513 1.00542C15.289 0.401447 13.7206 0.0932169 12.1373 0.0987048C5.50372 0.0987048 0.0971961 5.47818 0.0971961 12.0786C0.0971961 14.1941 0.656072 16.2492 1.70093 18.0625L0 24.2761L6.37848 22.6079C8.14015 23.5629 10.1205 24.0706 12.1373 24.0706C18.771 24.0706 24.1775 18.6911 24.1775 12.0907C24.1775 8.88719 22.9261 5.8771 20.6541 3.61652ZM12.1373 22.0397C10.3392 22.0397 8.57754 21.5562 7.03455 20.6495L6.67007 20.4319L2.87943 21.4232L3.88784 17.7482L3.64485 17.3735C2.64585 15.7862 2.1154 13.9514 2.11401 12.0786C2.11401 6.59034 6.60932 2.11752 12.1252 2.11752C14.7981 2.11752 17.313 3.15715 19.1962 5.04298C20.1286 5.96652 20.8676 7.06502 21.3702 8.27481C21.8728 9.4846 22.1291 10.7816 22.1242 12.0907C22.1485 17.579 17.6532 22.0397 12.1373 22.0397ZM17.6289 14.5931C17.3252 14.448 15.8429 13.7227 15.5756 13.6139C15.2962 13.5172 15.1018 13.4688 14.8953 13.7589C14.6887 14.0612 14.1177 14.7381 13.9476 14.9315C13.7775 15.137 13.5953 15.1612 13.2915 15.0041C12.9878 14.859 12.0158 14.5326 10.8738 13.5172C9.97473 12.7193 9.3794 11.7401 9.19716 11.4379C9.02707 11.1357 9.17286 10.9785 9.3308 10.8214C9.46445 10.6884 9.63454 10.4708 9.78034 10.3016C9.92613 10.1323 9.98688 9.99935 10.0841 9.80593C10.1813 9.60042 10.1327 9.43118 10.0598 9.28612C9.98688 9.14105 9.3794 7.66623 9.13641 7.0618C8.89342 6.48154 8.63828 6.55407 8.45604 6.54198H7.87287C7.66632 6.54198 7.35044 6.61451 7.071 6.91673C6.80371 7.21895 6.02614 7.94427 6.02614 9.41909C6.02614 10.8939 7.10745 12.3204 7.25324 12.5138C7.39904 12.7193 9.3794 15.7415 12.3925 17.035C13.1093 17.3493 13.6682 17.5306 14.1056 17.6636C14.8224 17.8933 15.4784 17.857 16.0009 17.7845C16.584 17.6999 17.7868 17.0592 18.0298 16.358C18.285 15.6569 18.285 15.0645 18.1999 14.9315C18.1149 14.7986 17.9326 14.7381 17.6289 14.5931Z" fill="white"/>
</svg>
